<svg xmlns="http://www.w3.org/2000/svg" xmlns:xlink="http://www.w3.org/1999/xlink" width="290" height="224" viewBox="0 0 290 224"><defs><clipPath id="a"><rect width="290" height="224" transform="translate(788 205)" fill="#fff" stroke="#252525" stroke-width="1"/></clipPath></defs><g transform="translate(-788 -205)" clip-path="url(#a)"><g transform="translate(769.823 153.003)"><path d="M295.35,182.53A130.541,130.541,0,1,0,45.885,236.378H283.732A130.149,130.149,0,0,0,295.35,182.53Z" fill="#f0f2ff"/><line x2="254.556" transform="translate(35.899 236.378)" stroke-width="3.264" stroke="#252525" stroke-linecap="round" stroke-linejoin="round" fill="none"/><line x2="8.159" transform="translate(21.213 236.378)" stroke-width="3.264" stroke="#252525" stroke-linecap="round" stroke-linejoin="round" fill="none"/><line x2="8.159" transform="translate(296.982 236.378)" stroke-width="3.264" stroke="#252525" stroke-linecap="round" stroke-linejoin="round" fill="none"/><rect width="157.629" height="112.592" rx="11.749" transform="translate(77.183 134.751)" fill="#d6daff"/><path d="M172.511,134.751H90.694a13.511,13.511,0,0,0-13.511,13.511v81.817Z" fill="#fff"/><rect width="157.629" height="112.592" rx="11.749" transform="translate(77.183 134.751)" stroke-width="3.264" stroke="#252525" stroke-linecap="round" stroke-linejoin="round" fill="none"/><path d="M221.3,247.344a13.511,13.511,0,0,0,13.674-13.511v-4.5H77.183v4.5a13.511,13.511,0,0,0,13.511,13.511Z" fill="#fff" stroke="#252525" stroke-linecap="round" stroke-linejoin="round" stroke-width="3.264"/><path d="M169.508,265.358H142.486l2.252-18.015h22.518Z" fill="#fff"/><path d="M169.508,265.358H142.486l2.252-18.015h22.518Z" fill="none" stroke="#252525" stroke-linecap="round" stroke-linejoin="round" stroke-width="3.264"/><path d="M185.271,274.366H126.723a9.007,9.007,0,0,1,9.007-9.007h40.5a9.04,9.04,0,0,1,9.04,9.007Z" fill="#fff" stroke="#252525" stroke-linecap="round" stroke-linejoin="round" stroke-width="3.264"/><path d="M113.212,118.989H243.754v77.737a7.832,7.832,0,0,1-7.832,7.833H121.045a7.832,7.832,0,0,1-7.832-7.833Z" fill="#fff" stroke="#252525" stroke-linecap="round" stroke-linejoin="round" stroke-width="3.264"/><path d="M121.045,91.966H235.986a7.833,7.833,0,0,1,7.832,7.832v19.19H113.277V99.8a7.833,7.833,0,0,1,7.767-7.832Z" fill="#fff" stroke="#252525" stroke-linecap="round" stroke-linejoin="round" stroke-width="3.264"/><circle cx="4.504" cy="4.504" r="4.504" transform="translate(122.219 100.974)" fill="#d6daff" stroke="#252525" stroke-linecap="round" stroke-linejoin="round" stroke-width="3.264"/><circle cx="4.504" cy="4.504" r="4.504" transform="translate(140.234 100.974)" fill="#d6daff" stroke="#252525" stroke-linecap="round" stroke-linejoin="round" stroke-width="3.264"/><circle cx="4.504" cy="4.504" r="4.504" transform="translate(158.249 100.974)" fill="#d6daff" stroke="#252525" stroke-linecap="round" stroke-linejoin="round" stroke-width="3.264"/><rect width="18.015" height="18.015" rx="3.264" transform="translate(153.745 146.011)" stroke-width="3.264" stroke="#252525" stroke-linecap="round" stroke-linejoin="round" fill="#d6daff"/><rect width="18.015" height="18.015" rx="3.264" transform="translate(183.019 146.011)" stroke-width="3.264" stroke="#252525" stroke-linecap="round" stroke-linejoin="round" fill="#d6daff"/><rect width="18.015" height="18.015" rx="3.264" transform="translate(212.293 146.011)" stroke-width="3.264" stroke="#252525" stroke-linecap="round" stroke-linejoin="round" fill="#d6daff"/><rect width="18.015" height="18.015" rx="3.264" transform="translate(153.745 173.033)" stroke-width="3.264" stroke="#252525" stroke-linecap="round" stroke-linejoin="round" fill="#d6daff"/><rect width="18.015" height="18.015" rx="3.264" transform="translate(183.019 173.033)" stroke-width="3.264" stroke="#252525" stroke-linecap="round" stroke-linejoin="round" fill="#d6daff"/><rect width="18.015" height="18.015" rx="3.264" transform="translate(212.293 173.033)" stroke-width="3.264" stroke="#252525" stroke-linecap="round" stroke-linejoin="round" fill="#d6daff"/><rect width="18.015" height="9.007" rx="3.264" transform="translate(126.723 127.996)" stroke-width="3.264" stroke="#252525" stroke-linecap="round" stroke-linejoin="round" fill="#d6daff"/><rect width="76.563" height="9.007" rx="3.264" stroke-width="3.264" fill="#d6daff" stroke="#252525" stroke-linejoin="round" transform="translate(153.745 127.996)"/><line x2="18.015" transform="translate(126.723 146.011)" stroke-width="3.264" stroke="#252525" stroke-linecap="round" stroke-linejoin="round" fill="none"/><line x2="18.015" transform="translate(126.723 155.018)" stroke-width="3.264" stroke="#252525" stroke-linecap="round" stroke-linejoin="round" fill="none"/><line x2="18.015" transform="translate(126.723 164.025)" stroke-width="3.264" stroke="#252525" stroke-linecap="round" stroke-linejoin="round" fill="none"/><line x2="18.015" transform="translate(126.723 173.033)" stroke-width="3.264" stroke="#252525" stroke-linecap="round" stroke-linejoin="round" fill="none"/><line x2="18.015" transform="translate(126.723 182.04)" stroke-width="3.264" stroke="#252525" stroke-linecap="round" stroke-linejoin="round" fill="none"/><line x2="11.259" transform="translate(126.723 191.047)" stroke-width="3.264" stroke="#252525" stroke-linecap="round" stroke-linejoin="round" fill="none"/><path d="M273.093,240.36c-.653,2.382-1.958,2.448-2.9,0L255.4,205.081c-.946-2.284,0-3.264,2.448-2.415l35.442,14.751c2.284.979,2.187,2.284-.2,2.937l-11.357,3.264a8.812,8.812,0,0,0-5.548,5.515Z" fill="#fff" stroke="#252525" stroke-linejoin="round" stroke-width="3.264"/><circle cx="1.893" cy="1.893" r="1.893" transform="translate(154.104 236.443)" fill="none" stroke="#252525" stroke-linecap="round" stroke-linejoin="round" stroke-width="3.264"/></g></g></svg>