<svg xmlns="http://www.w3.org/2000/svg" xmlns:xlink="http://www.w3.org/1999/xlink" width="290" height="220" viewBox="0 0 290 220"><defs><clipPath id="a"><rect width="290" height="220" transform="translate(794 216)" fill="#fff" stroke="#707070" stroke-width="1"/></clipPath></defs><g transform="translate(-794 -216)" clip-path="url(#a)"><g transform="translate(801.513 188.503)"><circle cx="109.99" cy="109.99" r="109.99" transform="translate(27.497 27.497)" fill="#f0f2ff"/><rect width="20.623" height="9.624" transform="translate(87.992 147.111)" stroke-width="2.75" stroke="#252525" stroke-linecap="round" stroke-linejoin="round" fill="#d6daff"/><rect width="20.623" height="9.624" transform="translate(87.992 137.487)" stroke-width="2.75" stroke="#252525" stroke-linecap="round" stroke-linejoin="round" fill="#d6daff"/><path d="M89.367,127.863H107.24a1.375,1.375,0,0,1,1.375,1.375v8.249H87.992v-8.249A1.375,1.375,0,0,1,89.367,127.863Z" fill="#d6daff"/><path d="M89.367,127.863H107.24a1.375,1.375,0,0,1,1.375,1.375v8.249H87.992v-8.249A1.375,1.375,0,0,1,89.367,127.863Z" fill="none" stroke="#252525" stroke-linecap="round" stroke-linejoin="round" stroke-width="2.75"/><path d="M191.189,186.982H71.686a2.75,2.75,0,0,1-2.365-1.32l-8.249-13.749a100.065,100.065,0,0,0-7.177-10.422l-7.727-9.817a2.75,2.75,0,0,1,2.172-4.455H94.509a5.665,5.665,0,0,1,3.162.99l12.319,8.524h109.99v13.116a5.5,5.5,0,0,1-3.025,4.895L193.637,186.4A5.335,5.335,0,0,1,191.189,186.982Z" fill="#fff"/><path d="M193.857,156.735h-33v-49.5h24.748a2.75,2.75,0,0,1,2.117.99l6.132,7.259Z" fill="#fff"/><path d="M193.857,156.735h-33v-49.5h24.748a2.75,2.75,0,0,1,2.117.99l6.132,7.259Z" fill="none" stroke="#252525" stroke-linecap="round" stroke-linejoin="round" stroke-width="2.75"/><rect width="20.623" height="9.624" transform="translate(193.857 147.111)" stroke-width="2.75" stroke="#252525" stroke-linecap="round" stroke-linejoin="round" fill="#d6daff"/><rect width="20.623" height="9.624" transform="translate(193.857 137.487)" stroke-width="2.75" stroke="#252525" stroke-linecap="round" stroke-linejoin="round" fill="#d6daff"/><rect width="20.623" height="9.624" transform="translate(193.857 127.863)" stroke-width="2.75" stroke="#252525" stroke-linecap="round" stroke-linejoin="round" fill="#d6daff"/><path d="M193.857,118.239H213.1a1.375,1.375,0,0,1,1.375,1.375v8.249H193.857Z" fill="#d6daff"/><path d="M193.857,118.239H213.1a1.375,1.375,0,0,1,1.375,1.375v8.249H193.857Z" fill="none" stroke="#252525" stroke-linecap="round" stroke-linejoin="round" stroke-width="2.75"/><rect width="20.623" height="9.624" transform="translate(134.737 147.111)" stroke-width="2.75" stroke="#252525" stroke-linecap="round" stroke-linejoin="round" fill="#d6daff"/><rect width="20.623" height="9.624" transform="translate(134.737 137.487)" stroke-width="2.75" stroke="#252525" stroke-linecap="round" stroke-linejoin="round" fill="#d6daff"/><rect width="20.623" height="9.624" transform="translate(134.737 127.863)" stroke-width="2.75" stroke="#252525" stroke-linecap="round" stroke-linejoin="round" fill="#d6daff"/><path d="M136.112,118.239h17.873a1.375,1.375,0,0,1,1.375,1.375v8.249H134.737v-8.249A1.375,1.375,0,0,1,136.112,118.239Z" fill="#d6daff"/><path d="M136.112,118.239h17.873a1.375,1.375,0,0,1,1.375,1.375v8.249H134.737v-8.249A1.375,1.375,0,0,1,136.112,118.239Z" fill="none" stroke="#252525" stroke-linecap="round" stroke-linejoin="round" stroke-width="2.75"/><rect width="20.623" height="9.624" transform="translate(114.114 147.111)" stroke-width="2.75" stroke="#252525" stroke-linecap="round" stroke-linejoin="round" fill="#d6daff"/><rect width="20.623" height="9.624" transform="translate(114.114 137.487)" stroke-width="2.75" stroke="#252525" stroke-linecap="round" stroke-linejoin="round" fill="#d6daff"/><path d="M115.489,127.863h19.248v9.624H114.114v-8.249A1.375,1.375,0,0,1,115.489,127.863Z" fill="#d6daff"/><path d="M115.489,127.863h19.248v9.624H114.114v-8.249A1.375,1.375,0,0,1,115.489,127.863Z" fill="none" stroke="#252525" stroke-linecap="round" stroke-linejoin="round" stroke-width="2.75"/><rect width="5.499" height="17.873" transform="translate(71.493 129.238)" stroke-width="2.75" stroke="#252525" stroke-linecap="round" stroke-linejoin="round" fill="#fff"/><path d="M214.48,123.738h2.75a2.75,2.75,0,0,1,2.75,2.75v30.247h-5.5Z" fill="#fff"/><path d="M76.993,147.111v-9.624h3a2.887,2.887,0,0,1,1.952.8l8.8,8.827Z" fill="#fff" stroke="#252525" stroke-linecap="round" stroke-linejoin="round" stroke-width="2.75"/><path d="M76.993,123.738h-5.5a2.75,2.75,0,0,0-2.75,2.75h0a2.75,2.75,0,0,0,2.75,2.75h5.5a2.75,2.75,0,0,0,2.75-2.75h0A2.75,2.75,0,0,0,76.993,123.738Z" fill="#fff" stroke="#252525" stroke-linecap="round" stroke-linejoin="round" stroke-width="2.75"/><rect width="27.497" height="8.249" transform="translate(155.36 98.991)" fill="#d6daff"/><path d="M181.483,98.991l-15.124,8.249h-11V98.991Z" fill="#fff"/><rect width="27.497" height="8.249" transform="translate(155.36 98.991)" stroke-width="2.75" stroke="#252525" stroke-linecap="round" stroke-linejoin="round" fill="none"/><path d="M174.443,86.617h-5.334a2.75,2.75,0,0,0-2.75,2.75v4.125h13.749l-3.327-5.5A2.75,2.75,0,0,0,174.443,86.617Z" fill="#fff" stroke="#252525" stroke-linecap="round" stroke-linejoin="round" stroke-width="2.75"/><path d="M155.36,107.24h5.5v5.5h-2.75a2.75,2.75,0,0,1-2.75-2.75Z" fill="#fff" stroke="#252525" stroke-linecap="round" stroke-linejoin="round" stroke-width="2.75"/><path d="M158.11,93.491h22a2.75,2.75,0,0,1,2.75,2.75v2.75h-27.5v-2.75A2.75,2.75,0,0,1,158.11,93.491Z" fill="#fff" stroke="#252525" stroke-linecap="round" stroke-linejoin="round" stroke-width="2.75"/><path d="M191.189,186.982H71.686a2.75,2.75,0,0,1-2.365-1.32l-8.249-13.749a100.065,100.065,0,0,0-7.177-10.422l-7.727-9.817a2.75,2.75,0,0,1,2.172-4.455H94.509a5.665,5.665,0,0,1,3.162.99l12.319,8.524h109.99v13.116a5.5,5.5,0,0,1-3.025,4.895L193.637,186.4A5.335,5.335,0,0,1,191.189,186.982Z" fill="none" stroke="#252525" stroke-linecap="round" stroke-linejoin="round" stroke-width="2.75"/><line y1="19.248" transform="translate(193.857 96.241)" stroke-width="2.75" stroke="#252525" stroke-linecap="round" stroke-linejoin="round" fill="none"/><line y1="9.624" transform="translate(169.109 76.993)" stroke-width="2.75" stroke="#252525" stroke-linecap="round" stroke-linejoin="round" fill="none"/><line x1="20.623" y2="20.623" transform="translate(48.12 126.488)" stroke-width="2.75" stroke="#252525" stroke-linecap="round" stroke-linejoin="round" fill="none"/><path d="M167.734,141.612l26.123-15.124v-6.874l-26.123,15.124Z" fill="#fff" stroke="#252525" stroke-linecap="round" stroke-linejoin="round" stroke-width="2.75"/><path d="M167.734,156.735l26.123-15.124v-6.874l-26.123,15.124Z" fill="#fff" stroke="#252525" stroke-linecap="round" stroke-linejoin="round" stroke-width="2.75"/><rect width="26.123" height="6.874" transform="translate(167.734 119.614)" stroke-width="2.75" stroke="#252525" stroke-linecap="round" stroke-linejoin="round" fill="#fff"/><rect width="26.123" height="6.874" transform="translate(167.734 134.737)" stroke-width="2.75" stroke="#252525" stroke-linecap="round" stroke-linejoin="round" fill="#fff"/><rect width="26.123" height="6.874" transform="translate(167.734 149.861)" stroke-width="2.75" stroke="#252525" stroke-linecap="round" stroke-linejoin="round" fill="#fff"/><path d="M193.5,186.4l20.98-10.422H109.99l-14.436-9.4a5.28,5.28,0,0,0-3-.907H56.81c1.4,2.007,2.75,4.042,4.015,6.132l8.249,13.749a2.75,2.75,0,0,0,2.42,1.43H191.052a5.5,5.5,0,0,0,2.447-.577Z" fill="#d6daff" stroke="#252525" stroke-linecap="round" stroke-linejoin="round" stroke-width="2.75"/><line y2="8.249" transform="translate(164.984 98.991)" stroke-width="2.75" stroke="#252525" stroke-linecap="round" stroke-linejoin="round" fill="none"/><line y2="8.249" transform="translate(174.608 98.991)" stroke-width="2.75" stroke="#252525" stroke-linecap="round" stroke-linejoin="round" fill="none"/><path d="M217.889,181.758c-6.709,0-6.709,4.29-13.419,4.29s-6.709-4.29-13.419-4.29-6.819,4.29-13.391,4.29-6.709-4.29-13.419-4.29-6.709,4.29-13.391,4.29-6.709-4.29-13.364-4.29-6.682,4.29-13.391,4.29-6.709-4.29-13.391-4.29-6.709,4.29-13.419,4.29-6.682-4.29-13.391-4.29-6.682,4.29-13.391,4.29-6.709-4.29-13.391-4.29-6.709,4.29-13.419,4.29a10.174,10.174,0,0,1-5.5-1.457,109.99,109.99,0,0,0,198.806,0,10.036,10.036,0,0,1-5.5,1.485C224.6,186.047,224.6,181.758,217.889,181.758Z" fill="#d6daff"/><path d="M30.247,181.73c6.709,0,6.709,4.317,13.391,4.317s6.709-4.317,13.419-4.317,6.682,4.317,13.391,4.317,6.709-4.317,13.391-4.317,6.709,4.317,13.391,4.317,6.709-4.317,13.419-4.317,6.682,4.317,13.391,4.317,6.709-4.317,13.391-4.317,6.709,4.317,13.419,4.317,6.682-4.317,13.391-4.317,6.709,4.317,13.419,4.317,6.682-4.317,13.391-4.317,6.709,4.317,13.419,4.317,6.709-4.317,13.419-4.317,6.709,4.317,13.419,4.317,6.709-4.317,13.419-4.317" fill="none" stroke="#252525" stroke-linecap="round" stroke-linejoin="round" stroke-width="2.75"/><path d="M67.809,202.271c6.709,0,6.709-4.29,13.391-4.29s6.709,4.29,13.419,4.29,6.682-4.29,13.391-4.29,6.709,4.29,13.391,4.29,6.709-4.29,13.336-4.29,6.709,4.29,13.391,4.29" fill="none" stroke="#252525" stroke-linecap="round" stroke-linejoin="round" stroke-width="2.75"/><path d="M107.707,227.486c6.709,0,6.709-4.29,13.391-4.29s6.709,4.29,13.391,4.29,6.709-4.29,13.419-4.29,6.682,4.29,13.391,4.29" fill="none" stroke="#252525" stroke-linecap="round" stroke-linejoin="round" stroke-width="2.75"/><path d="M205.626,208.98c-6.682,0-6.682,4.29-13.391,4.29s-6.682-4.29-13.5-4.29-6.709,4.29-13.391,4.29" fill="none" stroke="#252525" stroke-linecap="round" stroke-linejoin="round" stroke-width="2.75"/><path d="M214.48,123.738h2.75a2.75,2.75,0,0,1,2.75,2.75v30.247h-5.5Z" fill="none" stroke="#252525" stroke-linecap="round" stroke-linejoin="round" stroke-width="2.75"/></g></g></svg>