<svg xmlns="http://www.w3.org/2000/svg" xmlns:xlink="http://www.w3.org/1999/xlink" width="40" height="40" viewBox="0 0 40 40"><defs><style>.a{fill:#fff;}.b{clip-path:url(#a);}.c{fill:none;}</style><clipPath id="a"><rect class="a" width="40" height="40" transform="translate(378 322)"/></clipPath></defs><g class="b" transform="translate(-378 -322)"><g transform="translate(378 322)"><rect class="c" width="40" height="40"/><path class="a" d="M28.75,17.5a11.22,11.22,0,0,0-3.75.653V15H15v2.5H10v-5h2.5V2.5H2.5v10h5v20H15v5h6.686a11.248,11.248,0,1,0,7.064-20Zm-11.176,10H15V30H10V20h5v5h3.153A11.165,11.165,0,0,0,17.574,27.5ZM28.75,37.354a8.6,8.6,0,1,1,8.6-8.6A8.623,8.623,0,0,1,28.75,37.354Z"/><path class="a" d="M35,30V27.5H32.921a4.307,4.307,0,0,0-.306-.758L34.1,25.257l-1.77-1.769-1.456,1.458A4.287,4.287,0,0,0,30,24.579V22.5H27.5v2.078a4.208,4.208,0,0,0-.815.337L25.26,23.49l-1.769,1.769,1.425,1.425a4.337,4.337,0,0,0-.339.816H22.5V30h2.078a4.243,4.243,0,0,0,.369.872L23.49,32.326l1.766,1.77,1.485-1.484a4.2,4.2,0,0,0,.756.306V35H30V32.919a4.2,4.2,0,0,0,.814-.337L32.329,34.1l1.768-1.77-1.515-1.513A4.393,4.393,0,0,0,32.919,30H35Zm-6.251.624a1.876,1.876,0,1,1,1.875-1.875A1.879,1.879,0,0,1,28.749,30.624Z"/></g></g></svg>