<svg xmlns="http://www.w3.org/2000/svg" xmlns:xlink="http://www.w3.org/1999/xlink" width="40" height="40" viewBox="0 0 40 40"><defs><style>.a,.c{fill:#fff;}.b{clip-path:url(#a);}.c{fill-rule:evenodd;}</style><clipPath id="a"><rect class="a" width="40" height="40" transform="translate(271 720)"/></clipPath></defs><g class="b" transform="translate(-271 -720)"><path class="c" d="M18.051,40A18.057,18.057,0,0,1,0,21.949a17.866,17.866,0,0,1,11.841-16.9v5.054a13.3,13.3,0,0,0-7.22,11.841,13.43,13.43,0,0,0,26.859,0A13.228,13.228,0,0,0,24.838,10.4V5.2A18.065,18.065,0,0,1,18.051,40Zm.433-19.783A2.9,2.9,0,0,1,15.6,17.329V2.888a2.888,2.888,0,0,1,5.776,0v14.44A2.9,2.9,0,0,1,18.484,20.217Z" transform="translate(272.949 720)"/></g></svg>