<svg xmlns="http://www.w3.org/2000/svg" xmlns:xlink="http://www.w3.org/1999/xlink" width="40" height="40" viewBox="0 0 40 40"><defs><style>.a{fill:#fff;}.b{clip-path:url(#a);}</style><clipPath id="a"><rect class="a" width="40" height="40" transform="translate(263 300)"/></clipPath></defs><g class="b" transform="translate(-263 -300)"><g transform="translate(262.141 299.139)"><path class="a" d="M40.276,17.835,22.024,1.321a1.738,1.738,0,0,0-2.329,0L1.443,17.835a1.748,1.748,0,1,0,2.329,2.607L20.859,4.954,37.946,20.407A1.748,1.748,0,0,0,40.276,17.8Z"/><path class="a" d="M36.5,22.6a1.738,1.738,0,0,0-1.738,1.738V37.373H6.953V24.336a1.738,1.738,0,0,0-3.477,0V39.111a1.738,1.738,0,0,0,1.738,1.738H36.5a1.738,1.738,0,0,0,1.738-1.738V24.336A1.738,1.738,0,0,0,36.5,22.6Z"/></g></g></svg>