<svg xmlns="http://www.w3.org/2000/svg" xmlns:xlink="http://www.w3.org/1999/xlink" width="290" height="220" viewBox="0 0 290 220"><defs><clipPath id="a"><rect width="290" height="220" transform="translate(442 527)" fill="#fff"/></clipPath></defs><g transform="translate(-442 -527)" clip-path="url(#a)"><g transform="translate(428.698 478.679)"><path d="M284.943,174.923A126.641,126.641,0,1,0,42.931,227.194h230.74a126.42,126.42,0,0,0,11.271-52.271Z" fill="#f0f2ff"/><line x2="246.95" transform="translate(34.826 227.194)" stroke-width="3.166" stroke="#252525" stroke-linecap="round" stroke-linejoin="round" fill="none"/><line x2="7.915" transform="translate(20.579 227.194)" stroke-width="3.166" stroke="#252525" stroke-linecap="round" stroke-linejoin="round" fill="none"/><line x2="7.915" transform="translate(288.109 227.194)" stroke-width="3.166" stroke="#252525" stroke-linecap="round" stroke-linejoin="round" fill="none"/><ellipse cx="56.989" cy="4.749" rx="56.989" ry="4.749" transform="translate(77.378 258.823)" fill="#f0f2ff"/><path d="M200.726,158.776a19,19,0,0,0,19-19V101.788A37.992,37.992,0,0,0,179.2,63.8a38.816,38.816,0,0,0-35.46,39.29V139.78a19,19,0,0,0,19,19Z" fill="#fff"/><path d="M200.726,158.776a19,19,0,0,0,19-19V101.788A37.992,37.992,0,0,0,179.2,63.8a38.816,38.816,0,0,0-35.46,39.29V139.78a19,19,0,0,0,19,19Z" fill="none" stroke="#252525" stroke-linecap="round" stroke-linejoin="round" stroke-width="3.166"/><path d="M181.73,153.078a49.39,49.39,0,0,0-49.39,49.548v13.3c0,25.043-8.9,28.494-18.743,28.494h-7.852v17.1H113.6c13.8,0,37.739-11.493,37.739-34.193h60.788c0,14.437-10.638,17.1-18.743,17.1h-7.852v17.1h7.852c15.577-.158,37.739-3.483,37.739-34.351V202.626a49.358,49.358,0,0,0-49.39-49.548Z" fill="#fff"/><path d="M181.73,153.078a49.39,49.39,0,0,0-49.39,49.548v13.3c0,25.043-8.9,28.494-18.743,28.494h-7.852v17.1H113.6c13.8,0,37.739-11.493,37.739-34.193h60.788c0,14.437-10.638,17.1-18.743,17.1h-7.852v17.1h7.852c15.577-.158,37.739-3.483,37.739-34.351V202.626a49.358,49.358,0,0,0-49.39-49.548Z" fill="none" stroke="#252525" stroke-linecap="round" stroke-linejoin="round" stroke-width="3.166"/><line y2="22.795" transform="translate(151.336 204.367)" stroke-width="3.166" stroke="#252525" stroke-linecap="round" stroke-linejoin="round" fill="none"/><line y2="22.795" transform="translate(212.124 204.367)" stroke-width="3.166" stroke="#252525" stroke-linecap="round" stroke-linejoin="round" fill="none"/><path d="M185.529,259.615h-5.7a7.6,7.6,0,1,1,0-15.2h5.7Z" fill="#fff" stroke="#252525" stroke-linecap="round" stroke-linejoin="round" stroke-width="3.166"/><path d="M105.745,259.615h-5.7a7.6,7.6,0,0,1,0-15.2h5.7Z" fill="#fff" stroke="#252525" stroke-linecap="round" stroke-linejoin="round" stroke-width="3.166"/><line y2="49.39" transform="translate(181.73 177.773)" stroke-width="3.166" stroke="#252525" stroke-linecap="round" stroke-linejoin="round" fill="none"/><path d="M193.128,154.977l-11.4,22.8-11.4-22.8v-9.5h22.8Z" fill="#fff"/><path d="M193.128,154.977l-11.4,22.8-11.4-22.8v-9.5h22.8Z" fill="none" stroke="#252525" stroke-linecap="round" stroke-linejoin="round" stroke-width="3.166"/><path d="M163.937,172.485A3.143,3.143,0,0,0,169,172.39l5.7-7.915a3.166,3.166,0,0,0,0-3.768l-4.686-6.332a49.39,49.39,0,0,0-14.912,6.332Z" fill="#fff" stroke="#252525" stroke-linecap="round" stroke-linejoin="round" stroke-width="3.166"/><path d="M199.46,172.485a3.166,3.166,0,0,1-5.066,0l-5.6-7.852a3.166,3.166,0,0,1,0-3.768l4.686-6.332a49.548,49.548,0,0,1,14.944,6.332Z" fill="#fff" stroke="#252525" stroke-linecap="round" stroke-linejoin="round" stroke-width="3.166"/><path d="M214.024,111.286V101.06A34.13,34.13,0,0,1,170.776,93.4a19.313,19.313,0,0,1-17.54,14.247,16.843,16.843,0,0,1-3.8-.443v4.242a5.731,5.731,0,0,0-5.7,5.7v1.9a5.731,5.731,0,0,0,5.7,5.7h.538a32.262,32.262,0,0,0,63.542,0h.507a5.7,5.7,0,0,0,5.7-5.7v-1.9a5.7,5.7,0,0,0-5.7-5.857Z" fill="#fff" stroke="#252525" stroke-linecap="round" stroke-linejoin="round" stroke-width="3.166"/><path d="M166.533,124.583a3.8,3.8,0,1,1-3.8-3.8A3.8,3.8,0,0,1,166.533,124.583Z" fill="#d6daff"/><path d="M204.526,124.583a3.8,3.8,0,1,1-3.8-3.8A3.8,3.8,0,0,1,204.526,124.583Z" fill="#d6daff"/><path d="M172.232,132.182a13.772,13.772,0,0,0,19,0" fill="none" stroke="#252525" stroke-linecap="round" stroke-linejoin="round" stroke-width="3.166"/><path d="M198.827,115.085a5.161,5.161,0,0,0-9.5,0" fill="none" stroke="#252525" stroke-linecap="round" stroke-linejoin="round" stroke-width="3.166"/><path d="M174.132,114.452a5.161,5.161,0,0,0-9.5,0" fill="none" stroke="#252525" stroke-linecap="round" stroke-linejoin="round" stroke-width="3.166"/><path d="M136.139,124.583v5.7a17.1,17.1,0,0,0,17.1,17.1h9.5" fill="none" stroke="#252525" stroke-linecap="round" stroke-linejoin="round" stroke-width="3.166"/><path d="M139.939,109.386h7.6v19h-7.6a3.8,3.8,0,0,1-3.8-3.8v-11.4A3.8,3.8,0,0,1,139.939,109.386Z" fill="#fff" stroke="#252525" stroke-linecap="round" stroke-linejoin="round" stroke-width="3.166"/><path d="M143.738,124.583a3.8,3.8,0,1,0,7.6,0v-11.4a3.8,3.8,0,0,0-7.6,0Z" fill="#d6daff" stroke="#252525" stroke-linecap="round" stroke-linejoin="round" stroke-width="3.166"/><path d="M219.723,109.386h7.6v19h-7.6a3.8,3.8,0,0,1-3.8-3.8v-11.4A3.8,3.8,0,0,1,219.723,109.386Z" transform="translate(443.244 237.769) rotate(180)" fill="#fff" stroke="#252525" stroke-linecap="round" stroke-linejoin="round" stroke-width="3.166"/><path d="M219.723,124.583a3.8,3.8,0,1,1-7.6,0v-11.4a3.8,3.8,0,1,1,7.6,0Z" fill="#d6daff" stroke="#252525" stroke-linecap="round" stroke-linejoin="round" stroke-width="3.166"/><path d="M174.132,147.379a5.7,5.7,0,1,1-5.7-5.7,5.7,5.7,0,0,1,5.7,5.7Z" fill="#d6daff" stroke="#252525" stroke-linecap="round" stroke-linejoin="round" stroke-width="3.166"/><path d="M136.139,118.884v-17.1a45.591,45.591,0,1,1,91.182,0v17.1" fill="none" stroke="#252525" stroke-linecap="round" stroke-linejoin="round" stroke-width="3.166"/><path d="M146.049,254.074h7.06l-15.1-46.889A3.166,3.166,0,0,0,134.841,205h-4.622Z" fill="#d6daff" stroke="#252525" stroke-linejoin="round" stroke-width="3.166"/><path d="M84.311,254.074h61.738L130.219,205h-57.4a3.166,3.166,0,0,0-3.008,4.147Z" fill="#d6daff"/><path d="M84.311,254.074h64.9v7.915H90.643a6.332,6.332,0,0,1-6.332-6.332Z" fill="#d6daff" stroke="#252525" stroke-linejoin="round" stroke-width="3.166"/><path d="M149.215,254.074h28.494a1.583,1.583,0,0,1,1.583,1.583,6.332,6.332,0,0,1-6.332,6.332H149.215Z" fill="#d6daff" stroke="#252525" stroke-linejoin="round" stroke-width="3.166"/><path d="M110.811,227.954a3.609,3.609,0,0,1,1.583-3.166,3.578,3.578,0,0,0-2.849-1.52c-1.2,0-2.375.7-2.976.7s-1.551-.7-2.564-.665a3.8,3.8,0,0,0-3.166,1.931,8.168,8.168,0,0,0,.981,7.852c.665.95,1.456,1.995,2.47,1.963s1.361-.633,2.533-.633,1.551.633,2.564.6,1.741-.95,2.406-1.9a10.226,10.226,0,0,0,1.076-2.216,3.356,3.356,0,0,1-2.058-2.944Z" fill="#fff" stroke="#252525" stroke-linejoin="round" stroke-width="3.166"/><line y1="1.425" x2="1.425" transform="translate(108.057 217.823)" stroke-width="3.166" stroke="#252525" stroke-linecap="round" stroke-linejoin="round" fill="none"/><path d="M84.311,254.074h61.738L130.219,205h-57.4a3.166,3.166,0,0,0-3.008,4.147Z" fill="none" stroke="#252525" stroke-linejoin="round" stroke-width="3.166"/></g></g></svg>