<svg xmlns="http://www.w3.org/2000/svg" xmlns:xlink="http://www.w3.org/1999/xlink" width="290" height="220" viewBox="0 0 290 220"><defs><clipPath id="a"><rect width="290" height="220" transform="translate(786 246)" fill="#fff"/></clipPath><clipPath id="b"><circle cx="110" cy="110" r="110" transform="translate(28.325 27.5)" fill="none"/></clipPath></defs><g transform="translate(-786 -246)" clip-path="url(#a)"><g transform="translate(793.5 218.5)"><path d="M248.325,137.5a110,110,0,1,0-210.21,45.375H238.508A109.175,109.175,0,0,0,248.325,137.5Z" fill="#f0f2ff"/><line x2="214.5" transform="translate(32.175 182.875)" stroke-width="2.75" stroke="#252525" stroke-linecap="round" stroke-linejoin="round" fill="none"/><line x2="6.875" transform="translate(18.425 182.875)" stroke-width="2.75" stroke="#252525" stroke-linecap="round" stroke-linejoin="round" fill="none"/><line x2="6.875" transform="translate(249.7 182.875)" stroke-width="2.75" stroke="#252525" stroke-linecap="round" stroke-linejoin="round" fill="none"/><line x1="7.892" y2="21.34" transform="translate(44.66 144.072)" stroke-width="2.75" stroke="#252525" stroke-linecap="round" stroke-linejoin="round" fill="#fff"/><ellipse cx="48.235" cy="4.73" rx="48.235" ry="4.73" transform="translate(41.717 216.013)" fill="#f0f2ff"/><g clip-path="url(#b)"><path d="M158.95,148.637v2.75a5.5,5.5,0,0,0,5.5,5.5H189.2V154a5.5,5.5,0,0,0-5.5-5.5h-4.125l-4.318-5.5a1.4,1.4,0,0,0-2.228,0l-1.705,2.75a14.822,14.822,0,0,1-8.937.22,2.75,2.75,0,0,0-3.437,2.667Z" fill="#d6daff" stroke="#252525" stroke-linecap="round" stroke-linejoin="round" stroke-width="2.75"/><path d="M259.325,86.625H136.262a3.438,3.438,0,0,1,0-6.875H259.325Z" fill="#fff" stroke="#252525" stroke-linecap="round" stroke-linejoin="round" stroke-width="2.75"/><path d="M259.325,125.125H136.262a3.438,3.438,0,0,1,0-6.875H259.325Z" fill="#fff" stroke="#252525" stroke-linecap="round" stroke-linejoin="round" stroke-width="2.75"/><path d="M259.325,163.625H136.262a3.437,3.437,0,1,1,0-6.875H259.325Z" fill="#fff" stroke="#252525" stroke-linecap="round" stroke-linejoin="round" stroke-width="2.75"/><path d="M193.325,67.375h19.25a1.375,1.375,0,0,1,1.375,1.375V77a2.75,2.75,0,0,1-2.75,2.75H194.7A2.75,2.75,0,0,1,191.95,77V68.75A1.375,1.375,0,0,1,193.325,67.375Z" fill="#fff" stroke="#252525" stroke-linecap="round" stroke-linejoin="round" stroke-width="2.75"/><path d="M213.95,68.75a5.5,5.5,0,0,1-5.5,5.5h-11a5.5,5.5,0,0,1-5.5-5.5h0a1.375,1.375,0,0,1,1.375-1.375h19.25A1.375,1.375,0,0,1,213.95,68.75Z" fill="#fff" stroke="#252525" stroke-linecap="round" stroke-linejoin="round" stroke-width="2.75"/><path d="M163.075,110H167.2c5.5,2.75,6.875,4.125,6.875,8.25h-8.5c-8,0-8-6.875-14.878-6.875a6.875,6.875,0,0,1-6.875-6.875l.908-3.63a1.4,1.4,0,0,1,2.09-.825C149.655,101.915,156.007,105.957,163.075,110Z" fill="#fff" stroke="#252525" stroke-linecap="round" stroke-linejoin="round" stroke-width="2.75"/><line y2="7.453" transform="translate(147.95 110.798)" stroke-width="2.75" stroke="#252525" stroke-linecap="round" stroke-linejoin="round" fill="#fff"/><path d="M202.95,110h4.125c5.5,2.75,6.875,4.125,6.875,8.25h-8.5c-8,0-8-6.875-14.877-6.875A6.875,6.875,0,0,1,183.7,104.5l.908-3.63a1.4,1.4,0,0,1,2.09-.825C189.53,101.915,195.883,105.957,202.95,110Z" fill="#fff" stroke="#252525" stroke-linecap="round" stroke-linejoin="round" stroke-width="2.75"/><line y2="7.453" transform="translate(187.825 110.798)" stroke-width="2.75" stroke="#252525" stroke-linecap="round" stroke-linejoin="round" fill="#fff"/><path d="M242.825,110h4.125c5.5,2.75,6.875,4.125,6.875,8.25h-8.5c-8,0-8-6.875-14.877-6.875a6.875,6.875,0,0,1-6.875-6.875l.908-3.63a1.4,1.4,0,0,1,2.09-.825C229.4,101.915,235.758,105.957,242.825,110Z" fill="#fff" stroke="#252525" stroke-linecap="round" stroke-linejoin="round" stroke-width="2.75"/><line y2="7.453" transform="translate(227.7 110.798)" stroke-width="2.75" stroke="#252525" stroke-linecap="round" stroke-linejoin="round" fill="#fff"/><path d="M178.75,72.628A5.521,5.521,0,0,1,173.5,79.75H156.75a5.5,5.5,0,0,1-5.253-7.122l3.3-10.753h20.625Z" fill="#fff" stroke="#252525" stroke-linecap="round" stroke-linejoin="round" stroke-width="2.75"/><path d="M154.825,61.875V59.813a10.313,10.313,0,0,1,20.625,0v2.063" fill="none" stroke="#252525" stroke-linecap="round" stroke-linejoin="round" stroke-width="2.75"/><path d="M168.575,69.438a3.437,3.437,0,1,1-6.875,0V61.875h6.875Z" fill="#d6daff" stroke="#252525" stroke-linecap="round" stroke-linejoin="round" stroke-width="2.75"/><path d="M189.2,156.75V154a5.5,5.5,0,0,0-5.5-5.5h-4.125v8.25Z" fill="#fff" stroke="#252525" stroke-linecap="round" stroke-linejoin="round" stroke-width="2.75"/><path d="M160.325,149.875H158.95v1.375a5.5,5.5,0,0,0,5.5,5.5h1.375v-1.375A5.5,5.5,0,0,0,160.325,149.875Z" fill="#fff" stroke="#252525" stroke-linecap="round" stroke-linejoin="round" stroke-width="2.75"/><path d="M208.45,149.875h31.625a2.75,2.75,0,0,1,2.75,2.75v4.125H208.45Z" fill="#fff" stroke="#252525" stroke-linecap="round" stroke-linejoin="round" stroke-width="2.75"/><path d="M208.45,143h28.875a2.75,2.75,0,0,1,2.75,2.75v4.125H208.45a2.75,2.75,0,0,1-2.75-2.75V145.75A2.75,2.75,0,0,1,208.45,143Z" fill="#fff" stroke="#252525" stroke-linecap="round" stroke-linejoin="round" stroke-width="2.75"/></g><path d="M144.265,125.51a5.692,5.692,0,0,0-2.118-.412,5.5,5.5,0,0,0-5.115,3.41L132.385,139.7a7.177,7.177,0,0,1-6.572,4.372H124.74a7.122,7.122,0,0,1-7.1-7.122v-4.73a28.462,28.462,0,0,0-56.925,0v4.73a7.123,7.123,0,0,1-7.122,7.123H52.552A7.122,7.122,0,0,1,45.98,139.7l-4.73-11.193a5.5,5.5,0,0,0-5.088-3.41,5.72,5.72,0,0,0-2.145.412,5.5,5.5,0,0,0-2.97,7.233l4.7,11.192a18.122,18.122,0,0,0,16.8,11.193H53.68a18.178,18.178,0,0,0,18.1-16.5V151.25h34.787V138.6a18.178,18.178,0,0,0,18.1,16.5h1.155a18.122,18.122,0,0,0,16.775-11.193l4.675-11.192a5.5,5.5,0,0,0-3-7.205Z" fill="#fff"/><path d="M106.563,151.25V138.6a18.178,18.178,0,0,0,18.1,16.5h1.155a18.122,18.122,0,0,0,16.775-11.193l4.675-11.192a5.5,5.5,0,0,0-3-7.233,5.692,5.692,0,0,0-2.118-.412,5.5,5.5,0,0,0-5.115,3.41l-4.648,11.22a7.177,7.177,0,0,1-6.572,4.372H124.74a7.122,7.122,0,0,1-7.1-7.122v-4.73a28.462,28.462,0,0,0-56.925,0v4.73a7.123,7.123,0,0,1-7.122,7.123H52.552A7.122,7.122,0,0,1,45.98,139.7l-4.73-11.193a5.5,5.5,0,0,0-5.088-3.41,5.72,5.72,0,0,0-2.145.412,5.5,5.5,0,0,0-2.97,7.233l4.7,11.192a18.122,18.122,0,0,0,16.8,11.193H53.68a18.178,18.178,0,0,0,18.1-16.5V151.25Z" fill="none" stroke="#252525" stroke-linecap="round" stroke-linejoin="round" stroke-width="2.75"/><path d="M106.563,217.58V151.25H71.775v66.33a3.163,3.163,0,0,0,3.163,3.163H103.4a3.135,3.135,0,0,0,3.163-3.163Z" fill="#fff"/><path d="M106.563,217.58V151.25H71.775v66.33a3.163,3.163,0,0,0,3.163,3.163H103.4a3.135,3.135,0,0,0,3.163-3.163Z" fill="none" stroke="#252525" stroke-linecap="round" stroke-linejoin="round" stroke-width="2.75"/><line y2="45.842" transform="translate(89.183 174.9)" stroke-width="2.75" stroke="#252525" stroke-linecap="round" stroke-linejoin="round" fill="none"/><path d="M89.183,220.742a9.488,9.488,0,0,0-9.433-9.487H78.1a9.46,9.46,0,0,0-8.25,4.922,3.135,3.135,0,0,0,2.75,4.565Z" fill="#d6daff" stroke="#252525" stroke-linecap="round" stroke-linejoin="round" stroke-width="2.75"/><path d="M105.71,220.742a3.135,3.135,0,0,0,2.75-4.565,9.488,9.488,0,0,0-8.25-4.922H98.642a9.487,9.487,0,0,0-9.487,9.487Z" fill="#d6daff" stroke="#252525" stroke-linecap="round" stroke-linejoin="round" stroke-width="2.75"/><path d="M105,119.57v-11a28.737,28.737,0,0,0-6.435-3.218c-.99,4.73-4.1,13.118-9.378,15.813-5.308-2.75-8.415-11-9.378-15.812a28.161,28.161,0,0,0-6.435,3.217v11c-3.988,7.92-6.243,10.395-3.19,14.657a14.822,14.822,0,0,1,1.595,4.317V151.25h34.787V138.6a14.135,14.135,0,0,1,1.623-4.318C111.21,129.965,108.955,127.49,105,119.57Z" fill="#d6daff"/><path d="M105,119.57v-11a28.737,28.737,0,0,0-6.435-3.218c-.99,4.73-4.1,13.118-9.378,15.813-5.308-2.75-8.415-11-9.378-15.812a28.161,28.161,0,0,0-6.435,3.217v11c-3.988,7.92-6.243,10.395-3.19,14.657a14.822,14.822,0,0,1,1.595,4.317V151.25h34.787V138.6a14.135,14.135,0,0,1,1.623-4.318C111.21,129.965,108.955,127.49,105,119.57Z" fill="none" stroke="#252525" stroke-linecap="round" stroke-linejoin="round" stroke-width="2.75"/><line x2="7.892" y2="21.34" transform="translate(52.553 144.072)" stroke-width="2.75" stroke="#252525" stroke-linecap="round" stroke-linejoin="round" fill="#fff"/><path d="M41.525,165.413h22.55a1.375,1.375,0,0,1,1.375,1.375v10.12a2.75,2.75,0,0,1-2.75,2.75H42.9a2.75,2.75,0,0,1-2.75-2.75v-10.12A1.375,1.375,0,0,1,41.525,165.413Z" fill="#d6daff" stroke="#252525" stroke-linecap="round" stroke-linejoin="round" stroke-width="2.75"/><path d="M65.45,167.007a6.3,6.3,0,0,1-6.325,6.243H46.475a6.325,6.325,0,0,1-6.325-6.325h0a1.6,1.6,0,0,1,1.6-1.6H63.882a1.567,1.567,0,0,1,1.567,1.595Z" fill="#d6daff" stroke="#252525" stroke-linecap="round" stroke-linejoin="round" stroke-width="2.75"/><path d="M67.018,78.458a3.878,3.878,0,0,1,3.162-3.795v-2.53a18.975,18.975,0,0,1,37.95,0v2.53a3.85,3.85,0,0,1-.385,7.645,18.975,18.975,0,0,1-37.153,0,3.877,3.877,0,0,1-3.575-3.85Z" fill="#fff" stroke="#252525" stroke-linecap="round" stroke-linejoin="round" stroke-width="2.75"/><circle cx="2.365" cy="2.365" r="2.365" transform="translate(97.075 78.458)" fill="#d6daff"/><path d="M111.293,78.458a3.877,3.877,0,0,1-3.548,3.85A19.03,19.03,0,0,1,97.02,95.728a14.41,14.41,0,0,1,1.32,9.57,28.352,28.352,0,0,1,14.162,10.67,19.773,19.773,0,0,0,1.952-9.1V72.132A25.053,25.053,0,0,0,104.83,52.25a20.542,20.542,0,0,0-22-2.2,10.808,10.808,0,0,0-7.562-3.3A11.413,11.413,0,0,0,63.883,58.08v48.785c0,11,5.5,14.795,14.41,19.717a3.162,3.162,0,0,0,4.482-1.54c6.6-16.5-7.865-14.218-1.485-29.315a19,19,0,0,1-10.7-13.42,3.85,3.85,0,0,1-.413-7.645A13.97,13.97,0,0,0,76.587,63a6.3,6.3,0,0,1,6.325-6.682,4.73,4.73,0,0,1,4.455,3.107A2.915,2.915,0,0,0,89.21,61.3c5.775,1.815,13.145,12.6,18.975,13.365A3.877,3.877,0,0,1,111.293,78.458Z" fill="#fff"/><circle cx="2.365" cy="2.365" r="2.365" transform="translate(76.533 78.458)" fill="#d6daff"/><path d="M93.913,86.488a8.525,8.525,0,0,1-9.487,0" fill="none" stroke="#252525" stroke-linecap="round" stroke-linejoin="round" stroke-width="2.75"/><path d="M97.735,75.295a2.75,2.75,0,0,0-3.822,0" fill="none" stroke="#252525" stroke-linecap="round" stroke-linejoin="round" stroke-width="2.75"/><path d="M84.425,75.295a2.75,2.75,0,0,0-3.795,0" fill="none" stroke="#252525" stroke-linecap="round" stroke-linejoin="round" stroke-width="2.75"/><path d="M111.293,78.458a3.877,3.877,0,0,1-3.548,3.85A19.03,19.03,0,0,1,97.02,95.728a14.41,14.41,0,0,1,1.32,9.57,28.352,28.352,0,0,1,14.162,10.67,19.773,19.773,0,0,0,1.952-9.1V72.132A25.053,25.053,0,0,0,104.83,52.25a20.542,20.542,0,0,0-22-2.2,10.808,10.808,0,0,0-7.562-3.3A11.413,11.413,0,0,0,63.883,58.08v48.785c0,11,5.5,14.795,14.41,19.717a3.162,3.162,0,0,0,4.482-1.54c6.6-16.5-7.865-14.218-1.485-29.315a19,19,0,0,1-10.7-13.42,3.85,3.85,0,0,1-.413-7.645A13.97,13.97,0,0,0,76.587,63a6.3,6.3,0,0,1,6.325-6.682,4.73,4.73,0,0,1,4.455,3.107A2.915,2.915,0,0,0,89.21,61.3c5.775,1.815,13.145,12.6,18.975,13.365A3.877,3.877,0,0,1,111.293,78.458Z" fill="none" stroke="#252525" stroke-linecap="round" stroke-linejoin="round" stroke-width="2.75"/><path d="M128.837,199.182h-6.05a3.162,3.162,0,0,1-3.162-3.3L121,164.257a3.135,3.135,0,0,1,3.135-3.025h3.438a3.162,3.162,0,0,1,3.163,3.025L132,195.883a3.19,3.19,0,0,1-3.162,3.3Z" fill="#fff" stroke="#252525" stroke-linecap="round" stroke-linejoin="round" stroke-width="2.75"/><line y1="20.57" transform="translate(125.813 140.663)" stroke-width="2.75" stroke="#252525" stroke-linecap="round" stroke-linejoin="round" fill="none"/><path d="M114.428,198.577l-5.94-1.128a3.19,3.19,0,0,1-2.5-3.822l7.178-30.827a3.135,3.135,0,0,1,3.657-2.393l3.355.633a3.135,3.135,0,0,1,2.558,3.548L118.25,195.91a3.19,3.19,0,0,1-3.822,2.668Z" fill="#fff" stroke="#252525" stroke-linecap="round" stroke-linejoin="round" stroke-width="2.75"/><line y1="20.185" x2="3.822" transform="translate(118.497 140.525)" stroke-width="2.75" stroke="#252525" stroke-linecap="round" stroke-linejoin="round" fill="none"/><path d="M137.17,198.577,143,197.45a3.162,3.162,0,0,0,2.75-3.822L138.462,162.8a3.163,3.163,0,0,0-3.713-2.393l-3.355.633a3.135,3.135,0,0,0-2.53,3.547l4.565,31.323a3.162,3.162,0,0,0,3.74,2.667Z" fill="#fff" stroke="#252525" stroke-linecap="round" stroke-linejoin="round" stroke-width="2.75"/><line x1="3.795" y1="20.185" transform="translate(129.305 140.525)" stroke-width="2.75" stroke="#252525" stroke-linecap="round" stroke-linejoin="round" fill="none"/></g></g></svg>