<svg xmlns="http://www.w3.org/2000/svg" xmlns:xlink="http://www.w3.org/1999/xlink" width="40" height="40" viewBox="0 0 40 40"><defs><style>.a{fill:#fff;}.b{clip-path:url(#a);}</style><clipPath id="a"><rect class="a" width="40" height="40" transform="translate(263 360)"/></clipPath></defs><g class="b" transform="translate(-263 -360)"><path class="a" d="M44.922,39.293,41.667,10a3.332,3.332,0,0,0-3.333-3.333H11.667A3.332,3.332,0,0,0,8.333,10L5.078,39.293A3.4,3.4,0,0,0,5,40a3.332,3.332,0,0,0,3.333,3.333H41.667A3.332,3.332,0,0,0,45,40,3.4,3.4,0,0,0,44.922,39.293ZM33.333,14.847v1.82a8.333,8.333,0,1,1-16.667,0v-1.82A2.5,2.5,0,1,1,20,12.5v4.167a5,5,0,0,0,10,0V12.5a2.5,2.5,0,1,1,3.333,2.347Z" transform="translate(258 355)"/></g></svg>