<svg xmlns="http://www.w3.org/2000/svg" xmlns:xlink="http://www.w3.org/1999/xlink" width="40" height="40" viewBox="0 0 40 40"><defs><clipPath id="a"><rect width="40" height="40" fill="#fff"/></clipPath></defs><g clip-path="url(#a)"><g transform="translate(3.012 0)"><path d="M13.786,13.335a9.773,9.773,0,1,1,9.773,9.773A9.785,9.785,0,0,1,13.786,13.335Z" transform="translate(-6.571 -3.561)" fill="#fff"/><path d="M40.548,34.768v7.325a1.469,1.469,0,0,1-1.468,1.468H8.039a1.469,1.469,0,0,1-1.468-1.468V34.768a10.227,10.227,0,0,1,10.22-10.229h.184l.161.092a13,13,0,0,0,12.847,0l.161-.092h.184a10.227,10.227,0,0,1,10.22,10.229Z" transform="translate(-6.571 -3.561)" fill="#fff"/></g></g></svg>