<svg xmlns="http://www.w3.org/2000/svg" xmlns:xlink="http://www.w3.org/1999/xlink" width="290" height="220" viewBox="0 0 290 220"><defs><clipPath id="a"><rect width="290" height="220" transform="translate(805 245)" fill="#fff"/></clipPath></defs><g transform="translate(-805 -245)" clip-path="url(#a)"><g transform="translate(812.5 217.5)"><circle cx="110" cy="110" r="110" transform="translate(27.5 27.5)" fill="#f0f2ff"/><path d="M61.463,217.057c0,2.75,19.827,5.2,44.275,5.2s44.275-2.337,44.275-5.2-19.828-5.307-44.275-5.307S61.463,214.17,61.463,217.057Z" fill="#d6daff"/><path d="M135.3,215.3h0a13.915,13.915,0,0,1-13.915-13.915V124.85a13.915,13.915,0,0,0-13.915-13.915h-48.7A13.915,13.915,0,0,1,72.682,124.85v76.533A13.915,13.915,0,0,0,86.6,215.3Z" fill="#fff"/><path d="M72.683,124.85a13.915,13.915,0,1,0-27.83,0v15.978a3.163,3.163,0,0,0,3.163,3.163h24.75Z" fill="#d6daff" stroke="#252525" stroke-linejoin="round" stroke-width="2.75"/><path d="M135.3,215.3h0a13.915,13.915,0,0,1-13.915-13.915V124.85a13.915,13.915,0,0,0-13.915-13.915h-48.7A13.915,13.915,0,0,1,72.682,124.85v76.533A13.915,13.915,0,0,0,86.6,215.3Z" fill="none" stroke="#252525" stroke-linejoin="round" stroke-width="2.75"/><path d="M135.3,215.3a13.915,13.915,0,0,0,13.75-15.263,14.327,14.327,0,0,0-14.3-12.567H95.975a1.6,1.6,0,0,0-.935,2.75,13.915,13.915,0,0,1-8.443,24.97Z" fill="#fff" stroke="#252525" stroke-linejoin="round" stroke-width="2.75"/><line x1="26.097" transform="translate(84.865 131.807)" stroke-width="2.75" stroke="#252525" stroke-linecap="round" stroke-linejoin="round" fill="none"/><line x1="26.097" transform="translate(84.865 142.257)" stroke-width="2.75" stroke="#252525" stroke-linecap="round" stroke-linejoin="round" fill="none"/><line x1="13.915" transform="translate(92.455 152.68)" stroke-width="2.75" stroke="#252525" stroke-linecap="round" stroke-linejoin="round" fill="none"/><line x1="10.422" transform="translate(95.947 163.13)" stroke-width="2.75" stroke="#252525" stroke-linecap="round" stroke-linejoin="round" fill="none"/><path d="M151.5,146.19l-14.74-14.768,12.293-17.215,19.662,19.69Z" fill="#d6daff"/><path d="M168.74,133.9l-19.69-19.69,55.632-49.06A10.065,10.065,0,0,1,218.763,79.5Z" fill="#d6daff"/><path d="M133.54,165.632a9.46,9.46,0,0,1-7.453,3.795c-4.62,0-11.77.715-16.5,3.823,3.08-4.647,3.74-11.77,3.795-16.5A9.488,9.488,0,0,1,117.2,149.3l15.868-11.8,12.293,12.293Z" fill="#fff"/><path d="M145.365,149.875l-12.32-12.293,3.712-6.16L151.5,146.19Z" fill="#fff" stroke="#252525" stroke-linejoin="round" stroke-width="2.75"/><path d="M133.54,165.632a9.46,9.46,0,0,1-7.453,3.795c-4.62,0-11.77.715-16.5,3.823,3.08-4.647,3.74-11.77,3.795-16.5A9.488,9.488,0,0,1,117.2,149.3l15.868-11.8,12.293,12.293Z" fill="none" stroke="#252525" stroke-linejoin="round" stroke-width="2.75"/><path d="M151.5,146.19l-14.74-14.768,12.293-17.215,19.662,19.69Z" fill="none" stroke="#252525" stroke-linejoin="round" stroke-width="2.75"/><path d="M128.15,159.72a3.492,3.492,0,1,1-.194-4.728,3.493,3.493,0,0,1,.194,4.728Z" fill="#d6daff" stroke="#252525" stroke-linejoin="round" stroke-width="2.75"/><line x1="12.292" y2="12.292" transform="translate(110.935 159.72)" fill="none" stroke="#252525" stroke-linejoin="round" stroke-width="2.75"/><path d="M214.693,83.93l2.227,2.2a6.985,6.985,0,0,1,.22,9.625L195.8,119.13" fill="none" stroke="#252525" stroke-linecap="round" stroke-linejoin="round" stroke-width="2.75"/><path d="M154.275,109.587l-5.225,4.62,19.662,19.69,4.73-5.142Z" fill="#fff" stroke="#252525" stroke-linejoin="round" stroke-width="2.75"/><path d="M168.74,133.9l-19.69-19.69,55.632-49.06A10.065,10.065,0,0,1,218.763,79.5Z" fill="none" stroke="#252525" stroke-linejoin="round" stroke-width="2.75"/></g></g></svg>