<svg xmlns="http://www.w3.org/2000/svg" xmlns:xlink="http://www.w3.org/1999/xlink" width="40" height="40" viewBox="0 0 40 40"><defs><style>.a,.c{fill:#fff;}.b{clip-path:url(#a);}.c{fill-rule:evenodd;}</style><clipPath id="a"><rect class="a" width="40" height="40" transform="translate(263 420)"/></clipPath></defs><g class="b" transform="translate(-263 -420)"><g transform="translate(251.002 409.335)"><g transform="translate(-142.662 -171.994)"><path class="c" d="M154.66,222.659h40v-2.668h-40Zm8-24a2.668,2.668,0,0,0-2.668,2.668v16h8v-16a2.668,2.668,0,0,0-2.668-2.668Zm21.333-8a2.668,2.668,0,0,0-2.668,2.665v24h8v-24a2.668,2.668,0,0,0-2.668-2.665Zm-10.666-8a2.668,2.668,0,0,0-2.668,2.668v32h8v-32a2.668,2.668,0,0,0-2.668-2.668Z"/></g></g></g></svg>