<svg xmlns="http://www.w3.org/2000/svg" xmlns:xlink="http://www.w3.org/1999/xlink" width="290" height="230" viewBox="0 0 290 230"><defs><clipPath id="a"><rect width="290" height="230" transform="translate(495 300)" fill="#fff"/></clipPath></defs><g transform="translate(-495 -300)" clip-path="url(#a)"><g transform="translate(475.526 251.217)"><path d="M296.053,181.711A131.579,131.579,0,1,0,44.605,235.987H284.342A131.085,131.085,0,0,0,296.053,181.711Z" fill="#f0f2ff"/><line x2="256.579" transform="translate(36.184 235.987)" stroke-width="3.289" stroke="rgba(0,0,0,0.9)" stroke-linecap="round" stroke-linejoin="round" fill="none"/><line x2="8.224" transform="translate(21.382 235.987)" stroke-width="3.289" stroke="rgba(0,0,0,0.9)" stroke-linecap="round" stroke-linejoin="round" fill="none"/><line x2="8.224" transform="translate(299.342 235.987)" stroke-width="3.289" stroke="rgba(0,0,0,0.9)" stroke-linecap="round" stroke-linejoin="round" fill="none"/><ellipse cx="48.849" cy="5.625" rx="48.849" ry="5.625" transform="translate(113.75 267.533)" fill="#f0f2ff"/><path d="M237.763,141.776a11.908,11.908,0,0,0-11.941-11.908h-122.7a11.908,11.908,0,0,0-11.941,11.908v81.349H237.763Z" fill="#d6daff"/><path d="M189.112,129.868H103.125a11.908,11.908,0,0,0-11.941,11.908v81.349h4.671Z" fill="#fff"/><path d="M182.237,258.651H146.711l2.2-17.763h31.118Z" fill="#fff"/><path d="M182.237,258.651H146.711l2.2-17.763h31.118Z" fill="none" stroke="rgba(0,0,0,0.9)" stroke-linecap="round" stroke-linejoin="round" stroke-width="3.289"/><path d="M189.9,267.533H139.046a2.763,2.763,0,0,1-2.566-3.849,8.882,8.882,0,0,1,7.993-5.033h40a8.882,8.882,0,0,1,7.993,5.033,2.763,2.763,0,0,1-2.566,3.849Z" fill="#fff" stroke="rgba(0,0,0,0.9)" stroke-linecap="round" stroke-linejoin="round" stroke-width="3.289"/><path d="M225.822,240.888a11.908,11.908,0,0,0,11.941-11.908v-5.855H91.184v5.855a11.908,11.908,0,0,0,11.941,11.908Z" fill="#fff" stroke="rgba(0,0,0,0.9)" stroke-linecap="round" stroke-linejoin="round" stroke-width="3.289"/><path d="M237.763,141.776a11.908,11.908,0,0,0-11.941-11.908h-122.7a11.908,11.908,0,0,0-11.941,11.908v81.349H237.763Z" fill="none" stroke="rgba(0,0,0,0.9)" stroke-linecap="round" stroke-linejoin="round" stroke-width="3.289"/><path d="M166.447,232.007a1.974,1.974,0,1,1-1.974-1.974A1.974,1.974,0,0,1,166.447,232.007Z" fill="none" stroke="rgba(0,0,0,0.9)" stroke-linecap="round" stroke-linejoin="round" stroke-width="3.289"/><path d="M208.52,191.414a7.928,7.928,0,0,1-7.862,7.961H128.289a7.961,7.961,0,0,1,0-15.888h72.368a7.928,7.928,0,0,1,7.862,7.928Z" fill="#d6daff" stroke="rgba(0,0,0,0.9)" stroke-linejoin="round" stroke-width="3.289"/><path d="M181.382,183.487H128.289a7.961,7.961,0,0,0,0,15.888h53.092Z" fill="#fff" stroke="rgba(0,0,0,0.9)" stroke-linejoin="round" stroke-width="3.289"/><path d="M181.382,183.487H128.289a7.961,7.961,0,0,0,0,15.888h53.092Z" fill="none" stroke="rgba(0,0,0,0.9)" stroke-linejoin="round" stroke-width="3.289"/><path d="M138.849,76.776a4.013,4.013,0,0,0-3.289,6.414l25.625,33.191a4.013,4.013,0,0,0,6.316,0l25.625-33.191a4.013,4.013,0,0,0-3.289-6.414h-9.868V58.355a7.928,7.928,0,0,0-7.928-7.928H156.513a7.928,7.928,0,0,0-7.928,7.928V76.776Z" fill="#fff"/><path d="M138.849,76.776a4.013,4.013,0,0,0-3.289,6.414l25.625,33.191a4.013,4.013,0,0,0,6.316,0l25.625-33.191a4.013,4.013,0,0,0-3.289-6.414h-9.868V58.355a7.928,7.928,0,0,0-7.928-7.928H156.513a7.928,7.928,0,0,0-7.928,7.928V76.776Z" fill="none" stroke="rgba(0,0,0,0.9)" stroke-linejoin="round" stroke-width="3.289"/></g></g></svg>