<svg xmlns="http://www.w3.org/2000/svg" xmlns:xlink="http://www.w3.org/1999/xlink" width="290" height="230" viewBox="0 0 290 230"><defs><clipPath id="a"><rect width="290" height="230" transform="translate(173 465)" fill="#fff" stroke="rgba(0,0,0,0.9)" stroke-width="1"/></clipPath></defs><g transform="translate(-173 -465)" clip-path="url(#a)"><g transform="translate(171.197 432.671)"><path d="M264.814,157.463A117.839,117.839,0,1,0,39.653,206.219H254.326a117.4,117.4,0,0,0,10.488-48.756Z" fill="#f0f2ff"/><line x2="229.786" transform="translate(30.609 206.071)" stroke-width="2.946" stroke="rgba(0,0,0,0.9)" stroke-linecap="round" stroke-linejoin="round" fill="none"/><line x2="7.365" transform="translate(17.352 206.071)" stroke-width="2.946" stroke="rgba(0,0,0,0.9)" stroke-linecap="round" stroke-linejoin="round" fill="none"/><line x2="7.365" transform="translate(266.287 206.071)" stroke-width="2.946" stroke="rgba(0,0,0,0.9)" stroke-linecap="round" stroke-linejoin="round" fill="none"/><ellipse cx="46.399" cy="4.625" rx="46.399" ry="4.625" transform="translate(101.224 245.695)" fill="#f0f2ff"/><path d="M205.129,209.489V150.245a7.424,7.424,0,0,0-7.424-7.424H97.541a7.424,7.424,0,0,0-7.453,7.424v59.244Z" fill="#d6daff"/><path d="M104.936,209.489l66.815-66.815H97.512a7.424,7.424,0,0,0-7.424,7.571v59.244Z" fill="#fff"/><path d="M205.129,209.489v14.73a7.424,7.424,0,0,1-7.424,7.424H97.541a7.424,7.424,0,0,1-7.424-7.424v-14.73Z" fill="#fff" stroke="rgba(0,0,0,0.9)" stroke-linecap="round" stroke-linejoin="round" stroke-width="2.946"/><path d="M151.335,220.624a3.712,3.712,0,1,1-3.712-3.712A3.712,3.712,0,0,1,151.335,220.624Z" fill="#d6daff" stroke="rgba(0,0,0,0.9)" stroke-linecap="round" stroke-linejoin="round" stroke-width="2.946"/><path d="M166.183,246.608H129.034l1.885-14.848h33.407Z" fill="#fff" stroke="rgba(0,0,0,0.9)" stroke-linecap="round" stroke-linejoin="round" stroke-width="2.946"/><line x2="59.361" transform="translate(117.928 246.608)" stroke-width="2.946" stroke="rgba(0,0,0,0.9)" stroke-linecap="round" stroke-linejoin="round" fill="none"/><path d="M205.129,209.489V150.245a7.424,7.424,0,0,0-7.424-7.424H97.541a7.424,7.424,0,0,0-7.453,7.424v59.244Z" fill="none" stroke="rgba(0,0,0,0.9)" stroke-linecap="round" stroke-linejoin="round" stroke-width="2.946"/><path d="M169.895,176.081a22.272,22.272,0,1,1-22.272-22.272A22.272,22.272,0,0,1,169.895,176.081Z" fill="#fff"/><path d="M169.895,176.081a22.272,22.272,0,1,1-22.272-22.272A22.272,22.272,0,0,1,169.895,176.081Z" fill="none" stroke="rgba(0,0,0,0.9)" stroke-linecap="round" stroke-linejoin="round" stroke-width="2.946"/><path d="M143.911,189.073a5.539,5.539,0,0,1-3.948-1.62l-7.394-7.424a5.568,5.568,0,0,1,7.866-7.866l3.506,3.476,9.044-9.044a5.568,5.568,0,0,1,7.866,7.866l-12.992,12.992A5.509,5.509,0,0,1,143.911,189.073Z" fill="#d6daff"/><path d="M143.911,189.073a5.539,5.539,0,0,1-3.948-1.62l-7.394-7.424a5.568,5.568,0,0,1,7.866-7.866l3.506,3.476,9.044-9.044a5.568,5.568,0,0,1,7.866,7.866l-12.992,12.992A5.509,5.509,0,0,1,143.911,189.073Z" fill="none" stroke="rgba(0,0,0,0.9)" stroke-linecap="round" stroke-linejoin="round" stroke-width="2.946"/><rect width="74.239" height="44.543" rx="3.093" transform="translate(3.697 105.378) rotate(-15.83)" fill="#fff"/><path d="M76.065,115.748,72.029,101.46a7.453,7.453,0,0,1-9.191-5.126L20,108.471a7.453,7.453,0,0,1-5.126,9.191l4.036,14.288a7.424,7.424,0,0,1,9.191,5.1L70.939,124.91A7.424,7.424,0,0,1,76.065,115.748Z" fill="#fff"/><path d="M52.615,114.658a7.424,7.424,0,1,1-9.162-5.1,7.424,7.424,0,0,1,9.162,5.1Z" fill="#d6daff"/><path d="M52.615,114.658a7.424,7.424,0,1,1-9.162-5.1,7.424,7.424,0,0,1,9.162,5.1Z" fill="none" stroke="rgba(0,0,0,0.9)" stroke-linecap="round" stroke-linejoin="round" stroke-width="2.946"/><path d="M76.065,115.748,72.029,101.46a7.453,7.453,0,0,1-9.191-5.126L20,108.471a7.453,7.453,0,0,1-5.126,9.191l4.036,14.288a7.424,7.424,0,0,1,9.191,5.1L70.939,124.91A7.424,7.424,0,0,1,76.065,115.748Z" fill="none" stroke="rgba(0,0,0,0.9)" stroke-linecap="round" stroke-linejoin="round" stroke-width="2.946"/><rect width="74.239" height="44.543" rx="3.093" transform="translate(3.697 105.378) rotate(-15.83)" stroke-width="2.946" stroke="rgba(0,0,0,0.9)" stroke-linecap="round" stroke-linejoin="round" fill="none"/><path d="M273.446,146.533l-52.35-15a6.157,6.157,0,0,1-4.242-7.63l8.838-30.933a6.157,6.157,0,0,1,7.63-4.242l52.438,15a6.187,6.187,0,0,1,4.242,7.63l-8.838,30.933a6.157,6.157,0,0,1-7.718,4.242Z" fill="#fff"/><rect width="66.815" height="7.424" transform="translate(225.39 94.159) rotate(15.98)" fill="#d6daff"/><line x2="17.853" y2="5.097" transform="translate(224.336 124.762)" stroke-width="2.946" stroke="rgba(0,0,0,0.9)" stroke-linecap="round" stroke-linejoin="round" fill="none"/><rect width="51.967" height="7.424" transform="translate(228.436 110.462) rotate(15.98)" fill="#fff"/><path d="M273.446,146.533l-52.35-15a6.157,6.157,0,0,1-4.242-7.63l8.838-30.933a6.157,6.157,0,0,1,7.63-4.242l52.438,15a6.187,6.187,0,0,1,4.242,7.63l-8.838,30.933a6.157,6.157,0,0,1-7.718,4.242Z" fill="none" stroke="rgba(0,0,0,0.9)" stroke-linecap="round" stroke-linejoin="round" stroke-width="2.946"/><rect width="66.815" height="7.424" transform="translate(225.39 94.159) rotate(15.98)" stroke-width="2.946" stroke="rgba(0,0,0,0.9)" stroke-linecap="round" stroke-linejoin="round" fill="none"/><rect width="51.967" height="7.424" transform="translate(228.436 110.462) rotate(15.98)" stroke-width="2.946" stroke="rgba(0,0,0,0.9)" stroke-linecap="round" stroke-linejoin="round" fill="none"/><circle cx="24.746" cy="24.746" r="24.746" transform="translate(122.877 63.339)" fill="#d6daff"/><path d="M147.623,63.339a24.746,24.746,0,0,0-17.5,42.245l35-34.88A24.776,24.776,0,0,0,147.623,63.339Z" fill="#fff"/><circle cx="24.746" cy="24.746" r="24.746" transform="translate(122.877 63.339)" fill="none" stroke="rgba(0,0,0,0.9)" stroke-miterlimit="10" stroke-width="2.946"/><line y2="3.093" transform="translate(147.623 100.458)" stroke-width="2.946" stroke="rgba(0,0,0,0.9)" stroke-linecap="round" stroke-linejoin="round" fill="none"/><line y2="3.093" transform="translate(147.623 72.618)" stroke-width="2.946" stroke="rgba(0,0,0,0.9)" stroke-linecap="round" stroke-linejoin="round" fill="none"/><path d="M141.407,94.271a6.187,6.187,0,1,0,6.187-6.187A6.187,6.187,0,1,1,153.78,81.9" fill="none" stroke="rgba(0,0,0,0.9)" stroke-linecap="round" stroke-linejoin="round" stroke-width="2.946"/></g></g></svg>